<?xml version="1.0" encoding="utf-8"?>
<!-- Generator: Adobe Illustrator 25.2.1, SVG Export Plug-In . SVG Version: 6.00 Build 0)  -->
<svg version="1.1" id="Camada_1" xmlns="http://www.w3.org/2000/svg" xmlns:xlink="http://www.w3.org/1999/xlink" x="0px" y="0px"
	 viewBox="0 0 1300 1300" style="enable-background:new 0 0 1300 1300;" xml:space="preserve">
<style type="text/css">
	.st0{fill:#FFFFFF;}
</style>
<g>
	<path class="st0" d="M1196.85,590.03c-0.34-35.56-27.9-63.39-63.4-63.98c-15.82-0.26-31.64-0.04-47.46-0.05
		c-17.55,0-35.11-0.11-52.66,0.04c-8.19,0.07-14.06,5.58-14.35,12.88c-0.36,9.03,4.07,14.58,12.78,15.7
		c2.78,0.36,5.62,0.25,8.44,0.25c30.34,0.01,60.68-0.15,91.02,0.05c22.41,0.14,36.44,14.17,36.71,36.57
		c0.24,19.93,0.15,39.86,0.05,59.78c-0.02,4.3-0.26,8.64-1.85,12.78c-5.87,15.29-17.44,23.43-34.48,23.51
		c-31.86,0.15-63.71,0.03-95.57,0.06c-9.69,0.01-15.87,4.28-17.06,11.64c-1.64,10.19,4.67,17.34,15.74,17.36
		c32.72,0.06,65.45,0.16,98.17-0.12c35.91-0.3,63.61-28.18,63.93-64.11C1197.05,631.62,1197.05,610.82,1196.85,590.03z"/>
	<path class="st0" d="M580.91,525.78c-23.84,0.17-47.69,0.06-71.53,0.06c0,0.03,0,0.05,0,0.08c-23.41,0-46.82,0.06-70.23-0.02
		c-6.11,0-13.37,0.53-17.04,6.15c-4.33,6.63-2.83,16.88-2.72,24.27c0.36,24.59,0.43,49.17,0.21,73.76
		c-0.13,14.32-0.35,28.63-0.67,42.95c-0.16,7.16-0.34,14.31-0.55,21.47c-0.33,11.26-0.3,20.59,12.05,24.78
		c6.78,2.3,13.41-0.54,16.85-6.88c5.88-10.82,3.36-27.18,3.53-39.05c0.29-20.73,0.48-41.46,0.29-62.19
		c-0.14-14.28-0.41-28.57-0.06-42.85c0.27-10.86,0.57-11.01,11.76-11.03c37.93-0.07,75.86-0.1,113.79,0.06
		c6.56,0.03,12.68,2.16,16.9-6.26c2.88-5.76,5.88-10.53,2.86-16.78C593.25,527.9,587.86,525.73,580.91,525.78z"/>
	<path class="st0" d="M366.63,528.54c-0.14-1.99-1.61-2.33-3.22-2.41c-1.68-0.08-3.11,0.39-3.32,2.28
		c-0.21,1.93-0.23,3.89-0.23,5.84c-0.01,29.04-0.01,58.07-0.01,87.11c0.03,0,0.06,0,0.09,0c0,29.04,0,58.07,0,87.11
		c0,1.52-0.01,3.03,0.04,4.55c0.07,2.33,1.21,3.6,3.65,3.54c2.25-0.05,2.95-1.45,3.02-3.41c0.05-1.52,0.08-3.03,0.08-4.55
		c-0.01-58.72-0.02-117.45-0.03-176.17C366.7,531.14,366.72,529.84,366.63,528.54z"/>
	<path class="st0" d="M561.35,606.96h-90.56c-7.84,0-14.19,6.35-14.19,14.19v0c0,7.84,6.35,14.19,14.19,14.19h90.56
		c7.84,0,14.19-6.35,14.19-14.19v0C575.54,613.32,569.19,606.96,561.35,606.96z"/>
	<path class="st0" d="M783.41,606.96H633.8c-7.84,0-14.19,6.35-14.19,14.19v0c0,7.84,6.35,14.19,14.19,14.19h149.6
		c7.84,0,14.19-6.35,14.19-14.19v0C797.6,613.32,791.25,606.96,783.41,606.96z"/>
	<path class="st0" d="M783.41,524.78H633.8c-7.84,0-14.19,6.35-14.19,14.19v0c0,7.84,6.35,14.19,14.19,14.19h149.6
		c7.84,0,14.19-6.35,14.19-14.19v0C797.6,531.13,791.25,524.78,783.41,524.78z"/>
	<path class="st0" d="M783.41,688.29H633.8c-7.84,0-14.19,6.35-14.19,14.19v0c0,7.84,6.35,14.19,14.19,14.19h149.6
		c7.84,0,14.19-6.35,14.19-14.19v0C797.6,694.64,791.25,688.29,783.41,688.29z"/>
	<path class="st0" d="M982.56,606.96h-149.6c-7.84,0-14.19,6.35-14.19,14.19v0c0,7.84,6.35,14.19,14.19,14.19h149.6
		c7.84,0,14.19-6.35,14.19-14.19v0C996.75,613.32,990.4,606.96,982.56,606.96z"/>
	<path class="st0" d="M982.56,524.78h-149.6c-7.84,0-14.19,6.35-14.19,14.19v0c0,7.84,6.35,14.19,14.19,14.19h149.6
		c7.84,0,14.19-6.35,14.19-14.19v0C996.75,531.13,990.4,524.78,982.56,524.78z"/>
	<path class="st0" d="M982.56,688.29h-149.6c-7.84,0-14.19,6.35-14.19,14.19v0c0,7.84,6.35,14.19,14.19,14.19h149.6
		c7.84,0,14.19-6.35,14.19-14.19v0C996.75,694.64,990.4,688.29,982.56,688.29z"/>
</g>
<path class="st0" d="M267.24,527.5l-46.56,24.49c-4.59,2.41-10.06,2.44-14.68,0.08l-46-23.58c-4.65-2.38-10.32-1.26-13.71,2.72
	l-32.3,37.92c-4.16,4.88-6.04,11.29-5.19,17.64l6.49,48.54c0.7,5.26,3.43,10.04,7.6,13.33l86.81,68.41c2.15,1.7,5.18,1.71,7.35,0.03
	l92.08-71.3c2.5-1.94,4.1-4.82,4.42-7.97l5.5-54.26c0.41-4.06-0.89-8.1-3.59-11.16l-37.98-43.01
	C274.9,526.46,270.68,525.69,267.24,527.5z M146.44,554.48l-2.91,22.3l-16.1-1.36L146.44,554.48z M123.75,583.38l16.68,1.94
	l-14.55,32.78C126.08,617.52,123.75,583.38,123.75,583.38z M129.57,637.3l14.55-38.79l7.18,58.58L129.57,637.3z M157.69,543.04
	l39.17,19.98l-44.02,12.8L157.69,543.04z M209.29,570.19v57.6l-52.17-43.25L209.29,570.19z M152.85,593.08l53.92,43.83L160.61,666
	L152.85,593.08z M209.48,698.2l-41.12-26.18l41.12-26.18V698.2z M301.21,577.36h-15.71l-2.91-22.88L301.21,577.36z M219.23,570.19
	c0,0,52.22,12.61,53.38,13.19c1.16,0.59-53.38,44.41-53.38,44.41V570.19z M219.81,698.2l-0.58-52.37l38.69,26.86L219.81,698.2z
	 M266.5,666l-45-27.93l53.72-45.77L266.5,666z M232.17,563.02l39.18-19.98l5.04,31.42L232.17,563.02z M277.36,655.92l7.37-56.92
	l13.77,36.95L277.36,655.92z M301.8,617.52l-13.87-31.03l16.19-2.72L301.8,617.52z"/>
</svg>
